<svg xmlns="http://www.w3.org/2000/svg" version="1.1" xmlns:xlink="http://www.w3.org/1999/xlink" xmlns:svgjs="http://svgjs.dev/svgjs" width="2000" height="1500" viewBox="0 0 2000 1500"><rect width="2000" height="1500" fill="none"></rect><g transform="matrix(0.40096230954290296,0,0,0.40096230954290296,598.5824263947761,250.40485829959516)"><svg viewBox="0 0 198 247" data-background-color="#ffffff" preserveAspectRatio="xMidYMid meet" height="2494" width="2000" xmlns="http://www.w3.org/2000/svg" xmlns:xlink="http://www.w3.org/1999/xlink"><g id="tight-bounds" transform="matrix(1,0,0,1,0.11240742857143005,-0.09999999999999432)"><svg viewBox="0 0 197.77518514285714 247.2" height="247.2" width="197.77518514285714"><g><svg viewBox="0 0 197.77518514285714 247.2" height="247.2" width="197.77518514285714"><g><svg viewBox="0 0 197.77518514285714 247.2" height="247.2" width="197.77518514285714"><g id="textblocktransform"><svg viewBox="0 0 197.77518514285714 247.2" height="247.2" width="197.77518514285714" id="textblock"><g><svg viewBox="0 0 197.77518514285714 247.2" height="247.2" width="197.77518514285714"><rect width="197.77518514285714" height="247.2" x="0" y="0" opacity="1" fill="#ed3b43" data-fill-palette-color="tertiary"></rect><g transform="matrix(1,0,0,1,23.607599999999998,23.607599999999998)"><svg width="150.55998514285716" viewBox="1.25 -35 26.35 35" height="199.9848" data-palette-color="#ffffff"><path d="M26.85 0L1.75 0 1.25-2.75 20.9-32.25 5-32.25 4.4-27.4 1.9-27.8 2.55-35 24.3-35 24.8-32.25 5.15-2.75 24.4-2.75 25.15-9 27.6-8.75 26.85 0Z" opacity="1" transform="matrix(1,0,0,1,0,0)" fill="#ffffff" class="wordmark-text-0" data-fill-palette-color="quaternary" id="text-0"></path></svg></g></svg></g></svg></g></svg></g></svg></g><defs></defs></svg><rect width="197.77518514285714" height="247.2" fill="none" stroke="none" visibility="hidden"></rect></g></svg></g></svg>